Coordinates
version=1
nRows=13
nColumns=38
inDegrees=no

Units are S.I. units (second, meters, Newtons, ...)
If the header above contains a line with 'inDegrees', this indicates whether rotational values are in degrees (yes) or radians (no).

endheader
time	pelvis_tilt	pelvis_list	pelvis_rotation	pelvis_tx	pelvis_ty	pelvis_tz	hip_flexion_r	hip_adduction_r	hip_rotation_r	knee_angle_r	ankle_angle_r	subtalar_angle_r	mtp_angle_r	hip_flexion_l	hip_adduction_l	hip_rotation_l	knee_angle_l	ankle_angle_l	subtalar_angle_l	mtp_angle_l	lumbar_extension	lumbar_bending	lumbar_rotation	arm_flex_r	arm_add_r	arm_rot_r	elbow_flex_r	pro_sup_r	wrist_flex_r	wrist_dev_r	arm_flex_l	arm_add_l	arm_rot_l	elbow_flex_l	pro_sup_l	wrist_flex_l	wrist_dev_l
1.66	0.80636	1.50868	-2.39462	0.69587	0.510537	0.918702	-0.263361	-0.0153697	-0.275478	0.162778	0.293544	0	0	0.313506	0.0200807	-0.261164	0	0.00526199	0	0	-0.143512	0.012898	0.0914623	-0.0989908	-0.375122	0.0951426	0.868249	1.36656	0	0	-0.0222707	-0.265932	0.541265	0.575835	0.857306	0	0
1.67	0.770949	1.50542	-2.36291	0.696107	0.50042	0.917291	-0.273423	-0.0200901	-0.280455	0.17569	0.302153	0	0	0.310778	0.0242262	-0.258152	0	0.0101315	0	0	-0.147501	0.00844517	0.0947979	-0.0965527	-0.371194	0.0946996	0.860955	1.36804	0	0	-0.0206596	-0.266879	0.545264	0.571062	0.857232	0	0
1.68	0.744579	1.50214	-2.34131	0.696277	0.489969	0.915984	-0.282228	-0.0258707	-0.285396	0.19073	0.310284	0	0	0.30562	0.0284632	-0.253716	0	0.0121125	0	0	-0.150577	0.00355182	0.0991608	-0.0951161	-0.367134	0.0943687	0.853348	1.36907	0	0	-0.0195399	-0.26803	0.548439	0.567025	0.856827	0	0
1.69	0.734066	1.49921	-2.3365	0.696389	0.478901	0.91465	-0.289636	-0.0327692	-0.289622	0.206822	0.317181	0	0	0.298865	0.0330692	-0.247901	0	0.0100068	0	0	-0.15157	-0.00197771	0.104699	-0.0954321	-0.362887	0.093993	0.845454	1.36991	0	0	-0.0192692	-0.269258	0.550707	0.563224	0.855907	0	0
1.7	0.742843	1.49647	-2.35166	0.696519	0.467397	0.913335	-0.295693	-0.0411696	-0.293183	0.223773	0.322584	0	0	0.290822	0.0385856	-0.240327	0	0.00457894	0	0	-0.150307	-0.00852753	0.111159	-0.0974228	-0.358364	0.0935368	0.837035	1.37064	0	0	-0.0198878	-0.27067	0.552882	0.559698	0.854425	0	0
1.71	0.766561	1.49373	-2.38269	0.696678	0.455479	0.912043	-0.300362	-0.051438	-0.296102	0.242066	0.326648	0	0	0.281829	0.0451704	-0.231512	0	-2.8357e-05	0	0	-0.147039	-0.0158975	0.118767	-0.101101	-0.353981	0.0932728	0.828477	1.37156	0	0	-0.0216118	-0.272106	0.555227	0.556461	0.852558	0	0
1.72	0.79481	1.49276	-2.42002	0.697084	0.443106	0.910825	-0.304739	-0.067365	-0.307644	0.260574	0.334283	0	0	0.273118	0.0502153	-0.225176	0	3.72005e-05	0	0	-0.140948	-0.0217533	0.127565	-0.106069	-0.350054	0.092975	0.819818	1.37288	0	0	-0.0247942	-0.272944	0.557389	0.553372	0.850236	0	0
1.73	0.827829	1.49	-2.45825	0.697674	0.431287	0.909661	-0.306241	-0.0795812	-0.312149	0.284007	0.335715	0	0	0.279395	0.0545634	-0.227534	0.0333286	0.00512748	0	0	-0.136282	-0.0296203	0.134374	-0.111579	-0.346344	0.094337	0.810812	1.37442	0	0	-0.0270217	-0.274549	0.559425	0.551276	0.84771	0	0
1.74	0.879	1.48871	-2.5142	0.698452	0.419282	0.908428	-0.304095	-0.0922375	-0.315994	0.309874	0.334742	0	0	0.287246	0.0583986	-0.2335	0.0625745	-0.000285931	0	0	-0.128344	-0.0370677	0.140568	-0.117502	-0.342791	0.0969327	0.800628	1.37605	0	0	-0.0304928	-0.276078	0.560522	0.549649	0.84481	0	0
1.75	0.945718	1.48722	-2.58523	0.699409	0.407093	0.907301	-0.299179	-0.106576	-0.319728	0.338641	0.331141	0	0	0.292821	0.0628802	-0.240716	0.082077	-0.0239881	0	0	-0.11852	-0.0452129	0.145919	-0.123441	-0.338968	0.100231	0.78909	1.37821	0	0	-0.0349383	-0.277709	0.561179	0.548122	0.841513	0	0
1.76	1.01334	1.48451	-2.65672	0.700494	0.394814	0.906451	-0.292472	-0.122707	-0.323042	0.370848	0.324365	0	0	0.296661	0.0670715	-0.252379	0.0992073	-0.0539285	0	0	-0.108655	-0.054321	0.15055	-0.128969	-0.334949	0.104469	0.776261	1.38102	0	0	-0.0396754	-0.279551	0.561396	0.546893	0.837994	0	0
1.77	1.0731	1.48	-2.71933	0.701715	0.382476	0.905944	-0.284726	-0.140697	-0.326306	0.406546	0.313739	0	0	0.300997	0.0707913	-0.268117	0.123147	-0.0714252	0	0	-0.0997585	-0.0647597	0.153811	-0.133967	-0.330437	0.109075	0.762445	1.38466	0	0	-0.0446604	-0.28194	0.56128	0.546261	0.834438	0	0
1.78	1.12373	1.47393	-2.77191	0.703025	0.370165	0.9058	-0.275132	-0.160493	-0.328734	0.446501	0.298166	0	0	0.307796	0.0739448	-0.286141	0.157955	-0.0694357	0	0	-0.0918709	-0.076526	0.155861	-0.138019	-0.325177	0.113575	0.747013	1.39011	0	0	-0.0496277	-0.285097	0.561246	0.5466	0.829886	0	0
